<?xml version="1.0" standalone="no"?>
<!DOCTYPE svg PUBLIC "-//W3C//DTD SVG 20010904//EN"
 "http://www.w3.org/TR/2001/REC-SVG-20010904/DTD/svg10.dtd">
<svg version="1.0" xmlns="http://www.w3.org/2000/svg"
 width="512.000000pt" height="512.000000pt" viewBox="0 0 512.000000 512.000000"
 preserveAspectRatio="xMidYMid meet">
<metadata>
Created by potrace 1.11, written by Peter Selinger 2001-2013
</metadata>
<g transform="translate(0.000000,512.000000) scale(0.100000,-0.100000)"
fill="#000000" stroke="none">
<path d="M2245 4119 c-5 -16 -13 -20 -31 -16 -19 3 -24 0 -24 -17 0 -11 -11
-43 -25 -71 -13 -27 -25 -60 -25 -73 0 -21 -3 -22 -42 -16 -24 4 -48 13 -54
20 -6 8 -15 14 -20 14 -5 0 -17 9 -27 20 -10 12 -29 20 -48 20 -22 0 -32 -5
-36 -20 -7 -26 -68 -29 -77 -3 -5 12 -9 14 -18 5 -7 -7 -20 -12 -29 -12 -24 0
-32 -15 -24 -49 4 -17 14 -31 26 -34 31 -8 20 -36 -26 -72 -33 -25 -40 -35
-35 -55 4 -18 15 -27 42 -33 31 -7 37 -13 43 -44 3 -19 3 -38 0 -41 -3 -4 -42
-8 -86 -9 l-79 -3 -1 28 c0 15 -4 36 -8 47 -8 19 -8 19 -15 -2 -8 -25 -26 -29
-44 -11 -9 9 -15 8 -25 -7 -11 -14 -21 -16 -43 -11 -16 4 -31 8 -34 8 -3 0
-12 -12 -22 -28 -21 -36 -23 -84 -4 -84 17 0 28 -62 12 -72 -6 -4 -20 1 -31
11 -20 18 -55 18 -55 0 0 -6 9 -7 20 -4 20 6 28 -9 11 -19 -4 -3 -11 -19 -14
-36 -8 -37 -31 -39 -49 -4 -18 36 -30 35 -40 -3 -10 -40 -20 -41 -47 -5 -18
25 -21 26 -36 11 -12 -11 -14 -22 -7 -40 16 -42 24 -167 12 -189 -14 -26 -47
-26 -55 0 -9 28 -26 25 -58 -8 -32 -33 -35 -52 -7 -52 11 0 20 -7 20 -15 0
-18 -4 -18 -48 -6 -18 5 -47 7 -65 4 -31 -5 -33 -8 -33 -42 1 -29 9 -45 43
-80 68 -68 55 -103 -33 -94 -41 4 -54 3 -54 -7 0 -8 -8 -22 -17 -32 -16 -17
-14 -20 20 -52 20 -19 37 -41 37 -50 0 -9 5 -16 12 -16 7 0 38 -8 70 -17 53
-16 58 -20 58 -45 0 -30 -26 -40 -36 -13 -4 8 -10 15 -15 15 -5 0 -9 -7 -9
-15 0 -8 -9 -15 -20 -15 -11 0 -20 6 -20 14 0 8 -14 16 -32 19 -18 3 -42 7
-53 9 -18 3 -20 -2 -17 -44 l4 -48 -41 0 c-30 0 -41 -4 -41 -15 0 -18 -36 -20
-43 -2 -4 8 -6 7 -6 -3 -1 -8 -10 -21 -21 -28 -11 -7 -20 -18 -20 -26 0 -16
42 -46 64 -46 19 0 40 -36 32 -56 -3 -8 1 -14 9 -14 8 0 15 -13 17 -32 2 -28
7 -32 26 -30 12 2 22 -2 22 -7 0 -6 20 -11 46 -11 38 0 44 -3 35 -13 -6 -8 -9
-17 -6 -20 3 -4 2 -5 -1 -3 -8 6 -54 -35 -54 -48 0 -6 9 -17 21 -24 18 -11 23
-11 33 4 19 26 35 9 29 -31 -6 -40 4 -44 35 -14 26 23 42 18 42 -15 0 -24 -21
-36 -68 -36 -12 0 -25 -7 -28 -15 -4 -10 -14 -13 -29 -9 -17 4 -25 1 -29 -14
-4 -11 -16 -22 -27 -25 -17 -5 -19 -9 -10 -26 6 -11 11 -29 11 -40 0 -12 3
-21 8 -21 4 0 18 -16 31 -35 18 -27 28 -34 45 -29 27 6 49 -34 40 -72 -5 -20
-2 -26 15 -31 11 -3 21 -12 21 -19 0 -19 19 -18 27 2 4 12 14 14 34 10 23 -4
29 -2 29 13 0 17 54 41 94 41 20 0 21 -26 1 -34 -20 -7 -19 -46 1 -74 13 -18
19 -21 30 -11 8 6 14 22 14 34 0 27 24 49 45 41 10 -3 15 -19 15 -45 0 -49 31
-84 67 -75 14 4 23 2 23 -6 0 -6 5 -8 10 -5 6 3 7 17 4 30 -3 14 0 33 10 46
12 17 13 26 4 36 -21 26 6 62 52 69 30 5 40 11 40 25 0 19 40 36 59 25 5 -4
16 3 24 14 12 18 18 19 42 10 41 -15 126 -80 120 -91 -3 -4 -19 -6 -35 -2 -41
8 -38 -10 5 -26 24 -8 40 -9 53 -2 12 7 42 7 88 0 75 -10 72 -8 156 -117 29
-37 73 -78 115 -106 128 -84 171 -165 160 -297 -3 -38 -1 -97 5 -132 14 -77
14 -98 0 -164 -13 -58 -62 -162 -86 -182 -9 -8 -16 -19 -16 -27 0 -7 -16 -16
-37 -20 -21 -4 -46 -11 -55 -15 -10 -5 -101 -16 -204 -24 -102 -8 -212 -19
-243 -25 -31 -5 -144 -17 -251 -25 -235 -19 -265 -24 -376 -70 -48 -20 -116
-46 -153 -57 -36 -12 -73 -27 -81 -33 -8 -7 -26 -15 -40 -18 -14 -3 -43 -12
-65 -21 -22 -8 -58 -15 -80 -16 -22 0 -49 -7 -59 -15 -11 -8 -26 -15 -33 -15
-12 0 -73 -26 -168 -70 -22 -10 -103 -30 -180 -45 -77 -14 -164 -30 -192 -36
l-53 -10 0 -155 0 -154 2560 0 2561 0 -3 92 -3 92 -45 14 c-25 7 -69 17 -97
23 -29 5 -79 19 -110 30 -34 12 -100 24 -158 28 -72 5 -118 14 -165 33 -68 27
-237 62 -375 78 -78 8 -149 22 -210 40 -16 5 -70 14 -120 20 -182 22 -278 47
-380 101 -295 156 -359 180 -545 209 -98 15 -96 14 -124 102 -15 44 -29 108
-32 141 -4 34 -10 71 -14 82 -4 11 -8 68 -9 127 l-2 108 37 57 c21 32 69 88
107 125 70 69 70 90 0 42 -39 -26 -49 -21 -39 20 9 38 196 216 227 216 7 0 26
5 43 10 281 92 266 88 320 74 70 -19 95 -17 135 7 18 11 40 18 48 15 9 -4 17
1 20 14 6 21 28 27 38 10 4 -6 11 -7 17 -4 6 4 5 9 -3 15 -7 4 -10 11 -7 15 9
8 68 -15 68 -27 0 -5 12 -9 26 -9 18 0 25 -5 23 -17 -3 -34 1 -43 20 -43 11 0
31 -15 46 -32 l26 -33 16 23 c22 31 31 28 50 -18 10 -22 24 -40 32 -40 10 0
12 -9 8 -37 -6 -37 -6 -38 39 -57 38 -15 49 -16 75 -6 18 8 51 11 85 7 l55 -6
-15 24 c-20 30 -20 45 -2 45 8 0 27 7 43 15 15 8 40 17 56 20 19 4 27 11 27
27 0 11 16 37 36 56 l35 34 -20 22 c-12 13 -21 36 -21 54 0 29 3 32 23 27 17
-4 26 1 40 26 22 39 22 49 -1 49 -30 0 -72 24 -69 40 1 11 -6 14 -27 13 -42
-3 -58 14 -50 51 3 17 10 35 15 41 15 16 10 26 -18 36 -26 9 -53 47 -53 75 0
7 15 17 32 23 28 10 39 8 81 -14 27 -14 53 -25 59 -25 5 0 8 19 6 43 -2 35 0
42 15 41 22 -2 22 11 -3 46 -14 20 -19 37 -14 54 4 17 1 27 -12 34 -16 9 -16
12 -2 48 9 23 23 40 34 42 43 7 77 138 50 191 -16 29 -20 31 -53 25 -35 -7
-36 -6 -30 18 9 35 -7 45 -81 54 -72 8 -81 25 -22 44 22 7 40 19 40 27 0 7 6
13 13 13 8 0 21 8 30 18 21 23 12 62 -15 62 -10 0 -29 11 -42 25 -13 14 -32
25 -43 25 -10 0 -24 5 -31 12 -15 15 -16 68 -1 68 7 0 8 11 4 31 -5 21 -3 34
6 39 10 7 10 12 1 23 -14 16 -72 29 -72 15 0 -15 -30 -8 -51 13 -19 19 -22 19
-38 5 -25 -23 -38 -20 -72 16 -34 38 -35 43 -10 94 20 40 14 64 -15 64 -7 0
-16 9 -19 20 -3 11 -11 20 -17 20 -6 0 -8 9 -5 20 3 11 1 23 -4 26 -5 3 -9 18
-9 34 0 39 -19 48 -40 20 -13 -17 -24 -21 -46 -17 -58 11 -109 35 -112 54 -2
10 -17 25 -35 33 -39 19 -46 37 -15 42 38 5 28 33 -12 33 -19 0 -41 4 -47 8
-17 10 -33 0 -33 -20 0 -13 -2 -13 -16 -2 -12 10 -15 25 -11 56 5 45 -3 53
-50 53 -36 0 -53 23 -63 86 -5 31 -11 59 -14 61 -3 3 -15 -4 -27 -16 -13 -12
-26 -21 -31 -21 -4 0 -8 -6 -8 -14 0 -16 -65 -28 -108 -20 -22 5 -28 10 -25
24 3 10 0 21 -6 24 -6 4 -11 19 -11 33 0 15 -7 35 -17 45 -15 17 -18 17 -34 2
-13 -12 -26 -14 -46 -9 -15 4 -64 6 -108 6 -69 -2 -82 1 -97 19 -23 26 -48 26
-48 -1 0 -20 -4 -21 -42 -16 -24 3 -45 13 -51 22 -31 55 -93 76 -99 33 -2 -14
-11 -24 -24 -26 -17 -2 -23 4 -28 28 -7 38 -40 39 -42 2 -2 -35 -20 -49 -44
-34 -16 10 -24 7 -51 -17 -54 -50 -115 -46 -157 11 -8 11 -26 18 -48 18 -27 0
-34 4 -34 19 0 28 -17 35 -25 10z m683 -631 c-4 -29 -38 -38 -38 -10 0 22 8
32 27 32 9 0 13 -8 11 -22z m-1448 -8 c0 -5 -8 -10 -17 -10 -15 0 -16 2 -3 10
19 12 20 12 20 0z m120 -26 c0 -8 -4 -14 -10 -14 -5 0 -10 9 -10 21 0 11 5 17
10 14 6 -3 10 -13 10 -21z m48 -104 c42 -9 52 -17 71 -50 28 -50 11 -61 -33
-22 -19 17 -50 35 -70 42 -35 11 -43 20 -29 33 8 9 3 9 61 -3z m-348 -136 c0
-31 -23 -28 -28 4 -2 15 2 22 12 22 11 0 16 -9 16 -26z m2540 1 c5 -14 14 -25
20 -25 26 0 6 -26 -27 -37 -42 -13 -72 0 -41 18 10 5 15 16 12 24 -8 19 2 45
16 45 6 0 15 -11 20 -25z m-2036 -5 c26 -9 37 -40 14 -40 -14 0 -48 30 -48 42
0 10 3 10 34 -2z m2433 -110 c5 -27 -14 -42 -53 -44 -40 -1 -53 16 -40 50 8
20 90 15 93 -6z m-1147 -392 c0 -12 -7 -18 -22 -18 -12 0 -29 -7 -39 -16 -20
-18 -49 -13 -49 9 0 7 15 18 34 25 20 8 36 21 40 35 6 22 7 22 21 3 8 -11 15
-28 15 -38z m1050 -7 c0 -12 -21 -19 -37 -13 -22 8 -14 22 12 22 14 0 25 -4
25 -9z m-80 -21 c0 -5 -7 -10 -15 -10 -8 0 -15 5 -15 10 0 6 7 10 15 10 8 0
15 -4 15 -10z m378 -58 c2 -7 -3 -12 -12 -12 -9 0 -16 7 -16 16 0 17 22 14 28
-4z m-148 -7 c0 -9 -9 -15 -25 -15 -16 0 -25 6 -25 15 0 9 9 15 25 15 16 0 25
-6 25 -15z m-1140 -29 c0 -10 -21 -13 -50 -7 -3 1 4 8 14 16 20 15 36 12 36
-9z m-1128 -123 c28 -25 21 -35 -12 -18 -30 16 -40 35 -18 35 6 0 20 -7 30
-17z m2163 -64 c0 -8 -10 -15 -22 -17 -25 -4 -30 7 -11 26 15 15 33 10 33 -9z
m-2055 -75 c0 -9 -5 -14 -12 -12 -18 6 -21 28 -4 28 9 0 16 -7 16 -16z m1920
-24 c0 -18 -70 -41 -91 -30 -40 22 -26 29 74 38 9 1 17 -2 17 -8z m-3070 -20
c0 -5 -4 -10 -10 -10 -5 0 -10 5 -10 10 0 6 5 10 10 10 6 0 10 -4 10 -10z
m3240 -115 c0 -8 -7 -15 -15 -15 -8 0 -15 7 -15 15 0 8 7 15 15 15 8 0 15 -7
15 -15z m-3020 -49 c0 -14 -34 -28 -44 -18 -15 14 -4 32 19 32 15 0 25 -6 25
-14z m2800 -43 c0 -37 -20 -52 -61 -49 -65 6 -74 33 -16 52 44 15 77 14 77 -3z
m-1220 -16 c0 -62 -67 -247 -89 -247 -11 0 -48 56 -69 103 -18 42 -15 101 6
120 23 21 89 45 125 46 22 1 27 -3 27 -22z m199 -2 c11 -12 -80 -135 -99 -135
-8 0 0 62 10 75 4 6 11 25 15 44 7 31 9 33 38 27 17 -3 33 -9 36 -11z m-750
-9 c13 -15 43 -124 39 -138 -2 -5 -15 0 -30 11 -14 12 -31 21 -36 21 -6 0 -24
17 -41 37 -30 36 -38 62 -24 76 12 13 80 7 92 -7z m-312 -21 c9 -20 8 -25 -2
-25 -17 0 -38 27 -30 40 10 16 19 12 32 -15z m-717 -1 c0 -9 -7 -14 -17 -12
-25 5 -28 28 -4 28 12 0 21 -6 21 -16z m2897 -9 c3 -9 13 -15 22 -14 39 5 99
-15 130 -43 26 -24 31 -32 20 -39 -8 -5 -25 -7 -39 -4 -14 2 -42 7 -62 11 -21
3 -38 10 -38 15 0 5 -9 9 -19 9 -36 0 -51 12 -51 39 0 41 24 57 37 26z m-2011
-10 c4 -8 11 -15 18 -15 6 0 19 -14 28 -30 9 -17 28 -34 41 -39 45 -17 120
-117 139 -184 10 -33 16 -63 13 -65 -10 -10 -109 64 -158 118 -43 48 -137 201
-137 224 0 13 51 5 56 -9z m-169 -53 c29 -15 53 -30 53 -34 0 -16 -68 -7 -110
15 -53 26 -70 64 -23 53 15 -4 52 -19 80 -34z m543 -16 c18 -41 19 -46 4 -90
-27 -78 -35 -71 -49 39 -4 28 -9 60 -12 73 -4 17 -1 22 16 22 15 0 26 -12 41
-44z m1873 26 c19 -21 13 -32 -15 -32 -13 0 -18 7 -18 25 0 30 11 32 33 7z
m-1033 -27 c0 -29 -59 -48 -127 -42 -61 6 -68 4 -156 -40 -51 -25 -104 -57
-119 -71 -35 -32 -47 -22 -20 15 37 51 134 139 139 126 6 -18 63 -17 63 1 0
10 19 12 94 8 63 -3 95 -1 100 7 10 16 26 14 26 -4z m196 -20 c-4 -15 -2 -25
4 -25 6 0 9 -4 6 -9 -6 -9 -78 3 -105 19 -14 8 -14 9 -1 14 8 2 29 9 45 14 50
17 58 15 51 -13z m64 -5 c0 -5 -4 -10 -10 -10 -5 0 -10 5 -10 10 0 6 5 10 10
10 6 0 10 -4 10 -10z m499 -109 c17 -11 7 -41 -13 -41 -15 0 -29 27 -20 41 7
11 15 11 33 0z m-1474 -96 c14 -45 14 -62 5 -93 -7 -20 -16 -41 -20 -45 -8
-10 -60 71 -60 93 0 18 42 100 51 100 5 0 16 -25 24 -55z"/>
</g>
</svg>
